<svg version="1.1" viewBox="0 0 58 70" xmlns="http://www.w3.org/2000/svg" xmlns:xlink="http://www.w3.org/1999/xlink"><defs><linearGradient id="linearGradient4786" x1="370.71" x2="442.44" y1="-247.13" y2="-239.35" gradientTransform="matrix(7.717 0 0 4.7943 -1437.6 1889.6)" gradientUnits="userSpaceOnUse"><stop stop-color="#ececec" offset="0"/><stop stop-color="#999" offset="1"/></linearGradient><linearGradient id="linearGradient4728" x1="369.37" x2="370.33" y1="786.97" y2="859.48" gradientTransform="matrix(2.5701 0 0 1.6513 -56.028 -220.58)" gradientUnits="userSpaceOnUse"><stop offset="0"/><stop stop-opacity="0" offset="1"/></linearGradient><linearGradient id="linearGradient4784" x1="231.74" x2="343.66" y1="-240.43" y2="-240.43" gradientTransform="matrix(7.717 0 0 4.7942 -1437.6 1889.8)" gradientUnits="userSpaceOnUse"><stop stop-color="#f9f9f9" offset="0"/><stop stop-color="#fff" offset="1"/></linearGradient><linearGradient id="linearGradient4227"><stop stop-color="#d98c26" offset="0"/><stop stop-color="#f9f3d4" offset="1"/></linearGradient><radialGradient id="radialGradient4774" cx="528.12" cy="103.53" r="5.496" gradientTransform="matrix(1 0 0 1.5203 0 -53.866)" gradientUnits="userSpaceOnUse" xlink:href="#linearGradient4227"/><radialGradient id="radialGradient4772" cx="485" cy="98.024" r="11.297" gradientTransform="matrix(1 0 0 .85507 0 14.487)" gradientUnits="userSpaceOnUse" xlink:href="#linearGradient4227"/><radialGradient id="radialGradient4766" cx="481.45" cy="90.387" r="8.0821" gradientTransform="matrix(-.022627 -.99974 2.3842 -.053962 276.84 576.45)" gradientUnits="userSpaceOnUse" xlink:href="#linearGradient4227"/><radialGradient id="radialGradient4770" cx="410.03" cy="91.537" r="13.687" gradientTransform="matrix(1 0 0 .63697 0 32.603)" gradientUnits="userSpaceOnUse" xlink:href="#linearGradient4227"/><radialGradient id="radialGradient4768" cx="463.39" cy="88.706" r="3.652" gradientTransform="matrix(1 0 0 .89947 0 8.9176)" gradientUnits="userSpaceOnUse" xlink:href="#linearGradient4227"/><radialGradient id="radialGradient4776" cx="463.1" cy="94.679" r="6.0633" gradientTransform="matrix(1 0 0 .677 0 31.238)" gradientUnits="userSpaceOnUse" xlink:href="#linearGradient4227"/><radialGradient id="radialGradient4778" cx="416.49" cy="99.343" r="5.2881" gradientTransform="matrix(1 0 0 .7449 0 25.343)" gradientUnits="userSpaceOnUse" xlink:href="#linearGradient4227"/><radialGradient id="radialGradient4792" cx="239.62" cy="-146.06" r="8.6822" gradientTransform="matrix(1 0 0 1.3408 0 49.775)" gradientUnits="userSpaceOnUse" xlink:href="#linearGradient4227"/><radialGradient id="radialGradient4790" cx="371.78" cy="-128.17" r="3.4996" gradientTransform="matrix(1 0 0 1.8904 0 114.12)" gradientUnits="userSpaceOnUse" xlink:href="#linearGradient4227"/><radialGradient id="radialGradient4794" cx="252.36" cy="-138.31" r="8.1949" gradientTransform="matrix(1 0 0 1.2939 0 40.646)" gradientUnits="userSpaceOnUse" xlink:href="#linearGradient4227"/><radialGradient id="radialGradient4788" cx="359.14" cy="-132.37" r="8.4506" gradientTransform="matrix(1 0 0 1.2317 0 30.674)" gradientUnits="userSpaceOnUse" xlink:href="#linearGradient4227"/><radialGradient id="radialGradient4782" cx="417.74" cy="-152.81" r="11.883" gradientTransform="matrix(1 0 0 .80775 0 -29.378)" gradientUnits="userSpaceOnUse" xlink:href="#linearGradient4227"/><radialGradient id="radialGradient4780" cx="401.57" cy="99.844" r="6.3763" gradientTransform="matrix(1 0 0 .68718 0 31.233)" gradientUnits="userSpaceOnUse" xlink:href="#linearGradient4227"/><radialGradient id="radialGradient4764" cx="449.16" cy="83.163" r="2.4191" gradientTransform="matrix(1 0 0 .84949 0 12.517)" gradientUnits="userSpaceOnUse" xlink:href="#linearGradient4227"/><radialGradient id="radialGradient4758" cx="514.77" cy="88.575" r="5.6694" gradientTransform="matrix(1 0 0 .70841 0 24.808)" gradientUnits="userSpaceOnUse" xlink:href="#linearGradient4227"/><radialGradient id="radialGradient4742" cx="424.97" cy="74.034" r="12.563" gradientTransform="matrix(1.7231 .021911 -.012864 1.0116 -306.33 -10.119)" gradientUnits="userSpaceOnUse" xlink:href="#linearGradient4227"/><radialGradient id="radialGradient4740" cx="487.26" cy="72.026" r="6.1932" gradientTransform="matrix(1 0 0 1.1741 0 -11.97)" gradientUnits="userSpaceOnUse" xlink:href="#linearGradient4227"/><radialGradient id="radialGradient4762" cx="413.34" cy="85.693" r="3.6546" gradientTransform="matrix(.95655 -.29158 .90387 2.9652 -59.493 -46.212)" gradientUnits="userSpaceOnUse" xlink:href="#linearGradient4227"/><radialGradient id="radialGradient4738" cx="475.44" cy="69.405" r="10.42" gradientTransform="matrix(1 0 0 1.0531 0 -3.6853)" gradientUnits="userSpaceOnUse" xlink:href="#linearGradient4227"/><radialGradient id="radialGradient4736" cx="521.68" cy="80.231" r="11.666" gradientTransform="matrix(.97807 -.20829 .2336 1.0969 -7.3005 99.71)" gradientUnits="userSpaceOnUse" xlink:href="#linearGradient4227"/><radialGradient id="radialGradient4730" cx="483.76" cy="62.816" r="16.454" gradientTransform="matrix(1.5103 -.50471 .3286 .98332 -267.53 241.51)" gradientUnits="userSpaceOnUse" xlink:href="#linearGradient4227"/><radialGradient id="radialGradient4734" cx="501.21" cy="73.18" r="9.5095" gradientTransform="matrix(.99276 -.12016 .16375 1.353 -8.3521 33.638)" gradientUnits="userSpaceOnUse" xlink:href="#linearGradient4227"/><radialGradient id="radialGradient4732" cx="461.26" cy="58.568" r="11.742" gradientTransform="matrix(1 0 0 .67997 0 18.561)" gradientUnits="userSpaceOnUse" xlink:href="#linearGradient4227"/><radialGradient id="radialGradient4744" cx="461.47" cy="77.521" r="10.506" gradientTransform="matrix(.99658 -.082612 .15722 1.8966 -10.61 -30.463)" gradientUnits="userSpaceOnUse" xlink:href="#linearGradient4227"/><radialGradient id="radialGradient4760" cx="432.34" cy="95.065" r="17.991" gradientTransform="matrix(.9939 -.11024 .12241 1.1036 -9.0014 36.004)" gradientUnits="userSpaceOnUse" xlink:href="#linearGradient4227"/><radialGradient id="radialGradient4796" cx="233.45" cy="-129.18" r="6.9662" gradientTransform="matrix(1 0 0 .57356 0 -55.087)" gradientUnits="userSpaceOnUse" xlink:href="#linearGradient4227"/><radialGradient id="radialGradient4746" cx="533.42" cy="90.778" r="18.834" gradientTransform="matrix(1 0 0 1.0077 0 -.69894)" gradientUnits="userSpaceOnUse" xlink:href="#linearGradient4227"/><radialGradient id="radialGradient4756" cx="546.38" cy="105.96" r="13.037" gradientTransform="matrix(1 0 0 1.2457 0 -24.732)" gradientUnits="userSpaceOnUse" xlink:href="#linearGradient4227"/><radialGradient id="radialGradient4754" cx="490.47" cy="79.461" r="5.031" gradientTransform="matrix(1 0 0 1.4646 0 -38.312)" gradientUnits="userSpaceOnUse" xlink:href="#linearGradient4227"/><radialGradient id="radialGradient4748" cx="420.21" cy="71.349" r="5.2507" gradientTransform="matrix(1 0 0 1.2579 0 -17.782)" gradientUnits="userSpaceOnUse" xlink:href="#linearGradient4227"/><radialGradient id="radialGradient4752" cx="465.8" cy="85.777" r="8.8088" gradientTransform="matrix(1.7955 -.044194 .019475 .79123 -372.21 37.057)" gradientUnits="userSpaceOnUse" xlink:href="#linearGradient4227"/><radialGradient id="radialGradient4750" cx="501.76" cy="85.86" r="11.86" gradientTransform="matrix(1 0 0 .9536 0 3.984)" gradientUnits="userSpaceOnUse" xlink:href="#linearGradient4227"/></defs><g><g transform="matrix(.13281 0 0 .13281 -5.9635 1)"><g transform="matrix(3.0911 0 0 3.0778 -130.27 -653.65)"><path d="m124.78 212.41c.13966.0175.28661.0348.43024.0654.32835.0699.66733.15986 1.0013.31078 1.3098.59178 2.4787 1.6596 2.589 2.349.24166 1.5107 4.0456 2.4193 8.1529 1.9397 3.4886-.40741 5.7283 1.581 6.4977 5.8187.36805 2.0274 1.1571 2.9674 3.6584 4.342 1.9985 1.0984 4.0422 3.1556 5.3936 5.4152l2.1614 3.6249 1.8781-2.2391c3.6789-4.3476 4.3804-4.9009 5.9354-4.5959 2.1028.41259 3.0323 2.2356 2.6469 5.2318-.2317 1.8011.004 2.5272.91599 2.7061.68695.13473 1.8565 1.3828 2.5844 2.7676.96341 1.8329 2.0355 2.6522 3.9366 3.0252 1.8706.367 2.7855 1.051 3.2353 2.4332.40014 1.23 1.3638 2.0928 2.6754 2.3565 1.4579.29284 2.868 1.6866 4.7823 4.7752 1.4862 2.3978 3.2141 4.9167 3.8408 5.5872.62674.67053 1.1197 2.0692 1.1058 3.1418-.0157 1.2166.76495 2.5979 2.0948 3.647 2.9348 2.3152 3.4266 4.5708 1.8163 8.4283-.71048 1.702-1.6954 3.4644-2.1789 3.9172-.33162.31058-.49281.70032-.49068 1.2425l-5.0354-.7461-11.49-2.3981-43.503-1.0242-50.202-1.9151-6.8469 1.471-5.1856.60989-5.1449-2.4599c-.05738-.90213-.48536-2.0209-1.3803-3.6127-1.6466-2.9288-1.7991-3.9054-1.2843-7.907.49328-3.835.8189-4.6085 2.0153-4.7697.78515-.10577 1.4986-.84371 1.6021-1.6486.31596-2.4564 2.7317-5.0055 4.4415-4.67.88804.17417 1.7844-.0507 1.9894-.55316.43557-1.0671 3.2845-.8005 4.835.47719.82954.68358 1.6766.0181 3.6818-2.9482 2.2888-3.3856 2.5073-4.0221 1.7962-5.4314-1.2003-2.3791-.71432-4.2444 1.7009-6.3338 2.7689-2.3954 4.9852-1.9363 6.7103 1.3949l1.3766 2.6345 1.6558-1.8115c2.6499-2.8864 3.5307-5.2459 2.972-7.8994-.61461-2.9192.93403-4.7854 5.496-6.5898 4.1495-1.6413 5.3521-1.277 5.5411 1.6841l.1506 2.4438 2.638-2.9273c2.0039-2.239 2.9558-2.7588 4.0235-2.164 1.8151 1.0112 5.5702-.55012 6.4-2.6555.35497-.90062.93829-1.577 1.2892-1.5081.35095.0688.7405-.62399.8555-1.518.28526-2.2176 1.8915-3.5729 3.8282-3.5501.13832.002.27074.0183.41042.0358v-3e-5z"/><path d="m124.65 214.41c-.37705-.0587-.74752-.002-1.0957.15599-1.8198.8242-2.3279 2.7241-.5967 2.239.79401-.22246 1.7314.76086 2.7935 2.8976 2.0546 4.1338.83509 4.922-2.9208 1.8969-2.5331-2.0403-2.8659-2.1302-3.4177-.91244-1.4335 3.1639 1.3955 5.6104 5.1902 4.5034 1.4575-.42514 1.4668-.42496-.0939.80212-1.1104.87303-1.3378 1.4133-.76842 1.8608.44012.34599.57476.96622.30505 1.3677-.26969.40147.52726.93677 1.7714 1.1881 1.2443.25085 3.0102.82875 3.9151 1.291 1.2903.65912 1.445.59904.73551-.29912-.49764-.62994-.59622-1.0976-.21623-1.0526.37999.045-.36626-.93765-1.6654-2.1846-1.4652-1.4064-2.1394-2.6241-1.7538-3.1982.46663-.69467.64564-.65733.74902.177.0757.61142.546 1.1685 1.0283 1.2631.48231.0946 1.5823 1.2088 2.4542 2.421.88493 1.2304 2.1075 2.0401 2.75 1.8601.81726-.229.97563.0258.57234.91597-.71637 1.5811.10819 1.7306 1.4817.26877.79425-.84524.8989-1.5742.49783-3.0858-.29037-1.0946-.34726-2.1852-.13244-2.3864.2148-.20112.49753.52873.61684 1.5904.28271 2.5158 1.7058 1.7426 1.5515-.84268-.065-1.0888.0222-1.4724.16035-.82423.30878 1.4492 1.623 1.799 2.7784.71701.619-.57969.71928-1.5621.41603-3.512-.47851-3.0769-1.644-3.7439-3.0647-1.6919-.8421 1.2163-.87861 1.1612-.35563-.56185.55314-1.8225.41064-1.9482-1.67-1.766-1.2379.10842-3.3911-.10226-4.7936-.44557-1.9923-.48775-2.6067-.26311-2.7949.92996-.18766 1.1894-.31806 1.0416-.59502-.55476-.42188-2.4317-1.9318-4.4409-3.4472-4.9383-.12627-.0415-.25964-.0699-.38532-.0894h4e-5z" fill="url(#radialGradient4730)"/><path d="m115.42 224.14c-.43921-.0436-.92582-.0602-1.4939-.0743-3.133-.0777-3.9225.30797-5.3206 2.4142-2.1028 3.1678-2.1436 3.632-.39882 4.9664 1.3121 1.0034 1.2401 1.0283-.75991.68816-1.2047-.20482-2.4255-.005-2.7203.43354-.29489.43894-.24804.86075.11521.93203.36329.0712.40247.89254.081 1.8231-.77829 2.2529.93757 2.5656 2.8986.53196.81974-.85014 2.3596-1.8978 3.4041-2.3297 1.0445-.43199 1.8553-1.3575 1.8227-2.0484-.0721-1.5284 1.9154-5.0382 2.7602-4.8724.33493.0657.3646.49279.072.92827-.29254.43547-.32422 1.4792-.0818 2.3398.30126 1.0688.62838 1.3206 1.0416.70542.33277-.49532 1.3904-.79268 2.3403-.60636 2.0717.40647 2.0573-1.0282-.0435-3.8035-.76949-1.0165-1.4339-1.5724-2.5556-1.8431-.33652-.0812-.72194-.14191-1.1612-.185v3e-5z" fill="url(#radialGradient4732)"/><path d="m103.16 223.61c-.26945-.008-.50058.47026-.59869 1.2331-.27199 2.1146-1.5973 3.0522-1.6822 1.1945-.0515-1.1269-.39521-1.2163-2.4415-.54799-3.3323 1.0884-3.524 3.3971-.2756 3.3567 1.5898-.0198 2.9322.57869 3.8492 1.6485 1.144 1.3347 1.6717 1.4471 2.7334.74103 1.9162-1.2741 1.8242-2.8064-.18986-3.2016-1.4194-.27846-1.6277-.64311-1.1161-1.9412.34822-.88353.32351-1.9329-.028-2.3214-.0452-.05-.0775-.0987-.12264-.12247-.0395-.0207-.0893-.0381-.12784-.0391h-.00033z" fill="#f9f3d4"/><path d="m143.41 228.65c-1.2697-.12993-2.4549-.004-3.2656.46991-1.5853.92612-1.8424 1.4096-1.1782 2.1604.61108.69078.63486.89508.0156.78369-1.052-.18941-1.5636 2.9766-.64189 3.9953.3672.40584 1.0595.36844 1.5476-.0887.48813-.45713 1.367-.70203 1.9462-.55687.6461.16188.41826.42746-.58887.73097-.903.27217-1.6963.95091-1.7662 1.4946-.07.54368.47481 1.8791 1.2044 2.9548 1.5031 2.216 1.3515 2.1746 4.0395 1.3857 2.1034-.61731 2.8195-2.3061 1.4745-3.4198-.4358-.36083-.18307-.45772.55574-.20305.93897.32371 1.4766-.10724 1.8076-1.463.26049-1.0667.91963-1.8784 1.4579-1.7729 1.3453.26395 1.374-.93837.0805-3.0104-.94497-1.5137-3.1733-2.7208-5.4001-3.2365-.433-.10028-.86583-.18071-1.2891-.22401h.00033z" fill="url(#radialGradient4734)"/><path d="m162.02 231.83c-.69133-.18126-1.4515.4848-3.0818 2.3857-1.445 1.6849-2.3666 3.1092-2.0238 3.1764.83197.16324 3.6718 5.2611 3.5327 6.3427-.0604.46974-.84853-.5564-1.7466-2.2756-.89807-1.7192-2.1984-3.2395-2.8934-3.3813-.69499-.14181-2.3898-.72852-3.7622-1.3057-2.3068-.97021-2.5081-.88907-2.7605 1.0726-.15015 1.167.0669 3.0717.51411 4.2636.44721 1.1919.52568 2.126.15342 2.053-.37226-.0731-.76964-1.022-.88959-2.0892-.13501-1.2013-.52599-1.6631-.98683-1.2315-1.1477 1.0748-.48593 3.2253 1.44 4.7355 5.9266 4.6471 10.927 3.1773 11.814-3.4411.14218-1.0606.60104-2.1165 1.0158-2.3422 1.359-.73936 1.6271-6.284.3632-7.512-.24028-.23344-.45797-.39069-.68841-.45108z" fill="url(#radialGradient4736)"/><path d="m122.16 230.57c-.50002-.0557-.61434.4527-.16251 1.5504.60196 1.4629.60251 1.536-.0927.43895-.9731-1.5352-4.6079-2.4286-4.7698-1.1699-.0623.4846.70562 1.0447 1.6816 1.2362 1.2253.24039 1.8048.93683 1.8995 2.2609.11145 1.5575.57259 1.9445 2.4354 2.0283 1.2615.0567 2.0974.4019 1.8642.7491-.23325.34728-.87336.51392-1.4156.40753-1.7871-.35057-1.1517 1.12 1.4409 3.3386 1.4035 1.201 3.1568 3.3862 3.9095 4.8389.9678 1.8677 1.4251 2.2398 1.5485 1.2804.096-.74615-.13785-1.936-.52895-2.6444-.57008-1.0327-.53375-1.2026.24675-.81671.58926.29135 1.1638-.29335 1.4603-1.4653.54715-2.1628-.51724-2.8967-1.3949-.9597-.31007.68439-.93301 1.1798-1.4143 1.0782-.58292-.12352-.61063-.34103-.0661-.67632 1.5308-.94261 1.9262-3.0342 1.2006-6.3215-.59277-2.6853-1.1549-3.4195-3.0693-4.0393-2.2448-.7267-2.2993-.68582-1.3944 1.1079.88773 1.7595.86628 1.9179-.49327 2.6672-.91241.50281-1.5798.44213-1.7712-.15429-.16672-.51935.1984-.85695.78501-.74186 1.483.29096 1.5291-1.2389.0794-2.6473-.7283-.70761-1.3248-1.1459-1.7429-1.2974-.0871-.0316-.16441-.0406-.23584-.0485h-1e-4z" fill="url(#radialGradient4738)"/><path d="m136.06 232.56c-.0603-.0322-.0954.35034-.11649 1.1633-.0257.98857-.83496 2.4487-1.8113 3.2508-1.9496 1.6016-2.2468 5.4477-.45108 5.8.61441.1206.84627-.25877.60633-1.0089-.21196-.66261.33989-.35103 1.2378.69456.89788 1.0456 1.746 1.8623 1.8627 1.8107.11665-.0516 1.0929-.0925 2.1775-.0897 1.6168.004 1.8591-.25943 1.3272-1.421-.35681-.77925-1.2199-1.5393-1.9146-1.6755-.88446-.17352-1.0892-.62318-.66181-1.5664.37195-.82086.1935-1.7578-.45646-2.4146-.58664-.59285-1.238-1.9983-1.4549-3.1163-.1784-.91932-.28434-1.3948-.34476-1.427h-5e-5z" fill="url(#radialGradient4740)"/><path d="m100.45 230.13c-1.122-.28569-3.1531 2.0624-2.9158 3.5457.19511 1.2196.0742 1.2167-.80096-.0419-.89128-1.2815-.96867-1.2759-.74836.15831.35963 2.3416-.91106 4.5576-2.4393 4.2578-.72118-.14155-1.5332.31267-1.7978.96091-.34581.84726-.0999 1.0683.88169.83124 1.2948-.31282 1.3103-.29135-.11016.71681-.82407.58475-1.2659 1.1141-.96416 1.1732.30175.0592-.23428.71323-1.1976 1.4323l-1.7522 1.2723 2.15 2.4225c3.1632 3.4963 7.545 4.8548 9.9478 3.1018 1.0524-.76774 2.1098-1.1583 2.3577-.88421.6331.69976 3.4246-3.4362 2.9214-4.3275-.22669-.40158-1.0823.0769-1.9111 1.0349-1.7738 2.0506-2.3079.52021-.92121-2.6228.70269-1.5927.59988-3.1783-.45524-7.276-.74074-2.8768-1.6593-5.4053-2.034-5.6533-.0657-.0435-.13597-.0832-.21077-.10213v-3e-5z" fill="url(#radialGradient4742)"/><path d="m115.65 232.18c-.57053.002-1.094.50853-2.0756 1.5794-1.063 1.1596-1.8051 2.4793-1.6608 2.9286.14429.44936-.63621 1.4551-1.7036 2.2264-2.6832 1.939-3.5613 8.1742-1.6081 11.427 1.5844 2.6383 1.9357 2.7874 2.6874 1.1282.3325-.73395.0886-1.7772-.62058-2.5686-.66527-.7424-1.1583-1.712-1.1038-2.1358.0545-.42377.78268.0188 1.6308 1.0082.84801.98938 1.8384 1.6258 2.2128 1.4221.37442-.20372.82793.0703 1.0036.61827.47604 1.4828 1.8612.41859 1.5976-1.2298-.12519-.7825.20597-1.8984.72039-2.4797.59949-.67744.74749-1.4951.42565-2.2819-.706-1.726-.24903-6.1508.61454-5.9814.39429.0773.47491.49872.18003.93765-.29489.43903-.24806.86084.11521.93209.36324.0713.38621.99254.0456 2.0436-.59336 1.8299-.53316 1.8231 1.6141-.11081l2.2331-2.0127-1.279-2.4584c-.71246-1.3554-2.1778-3.1623-3.2456-3.9987-.67606-.52962-1.1405-.84885-1.5478-.94512-.0849-.02-.15435-.0489-.23586-.0484h-2e-4z" fill="url(#radialGradient4744)"/><path d="m99.919 231.62c.61039.1198.75073.67972.40955 1.4327-.30889.68175-.80145.96445-1.1038.63022-.86705-.95831-.41227-2.28.69424-2.0629z"/><path d="m128.88 234.62c.48854.10417.34949.41693-.33315.80917-1.455.83602-1.6955.78939-1.0298-.2015.2949-.43898.91578-.70261 1.363-.60767z"/><path d="m114.1 234.7c.15781-.0194.39313.23273.75558.76431.48681.71398.87623 1.456.8527 1.6389-.0236.18294-.50795.2408-1.0724.13008-.56442-.11064-.95561-.82487-.85445-1.6111.0753-.58542.1607-.90281.31853-.92222z"/><path d="m110.52 234.61c-.31798-.0624-1.2211.55824-1.9968 1.3627-.77577.80446-1.3845 2.0462-1.3462 2.7605.0539 1.0033.48628.96188 1.8622-.25687 1.7809-1.5774 2.5706-3.6525 1.4808-3.8663z" fill="#f9f3d4"/><path d="m165.07 240.01c-.13576-.0208-.27568-.0296-.41042-.0358-2.4417-.11624-3.5936 3.3039-1.8966 5.6462.96114 1.3266.95099 1.4143-.0256.75212-.82414-.5589-1.6684.15524-3.2721 2.6486-1.1949 1.8577-2.8706 3.7432-3.7172 4.2023-1.8508 1.0037-2.2386 3.1699-1.1054 6.1901.79104 2.1082.73648 2.2283-.71689 2.4242-1.6824.22665-2.267 3.5831-.74748 4.2934.46397.21692.56237.11655.2084-.20535-.354-.32203-.57863-.95307-.51932-1.4143.065-.50553.60008-.39502 1.327.31124 2.043 1.985 2.636 1.6047 3.1023-2.0208.34984-2.7197.81035-3.6681 2.1135-4.2582.95702-.43341 1.3448-.97085.90457-1.2623-.42343-.28033-.54354-1.0071-.2677-1.6159.27582-.60879.21502-1.43-.14576-1.8288-.40471-.44728-.78279.20347-.97574 1.7031-.22634 1.7595-.47774 2.1198-.92964 1.316-1.114-1.9814.1259-4.3015 2.141-4.0044 1.0239.15107 2.3065-.0866 2.8552-.50563.54869-.41894 2.2603-.71771 3.8014-.70252l2.8004.0205-2.4179.4599c-3.762.73048-6.0041 2.2894-5.726 4.0273.15562.97296.39851 1.177.66153.53265.62811-1.5387 1.567-.99597 1.236.72232-.2387 1.2397.15434 1.5582 2.2153 1.7297 1.393.116 2.695.6629 2.8766 1.2285.19473.60666-.26523.9097-1.1324.73959-2.0668-.40548-4.6072 2.6957-4.0218 4.9022.24827.93586.80226 1.522 1.1994 1.3059.39718-.21609 1.1077.29984 1.5987 1.1731 1.6335 2.9056 6.2829 2.5764 6.676-.48007.0725-.56332 1.252-2.3551 2.6162-3.963 2.6599-3.1351 3.6167-6.9432 2.2554-8.9397-.54082-.79314-2.1142-1.2926-4.538-1.4012-2.4329-.10895-3.381-.39444-2.7066-.82252 1.5328-.97301-1.233-4.1334-3.3839-3.8711-.98203.11984-1.5881-.2213-1.5133-.80237.0691-.53713.49432-.80132.94912-.58788 1.2273.57599 2.1055-4.6946 1.0441-6.2513-.36278-.5321-1.169-1.0344-2.0056-1.2644-.13942-.0383-.2711-.0708-.40692-.0913h8e-5z" fill="url(#radialGradient4746)"/><path d="m99.703 236.1c.04117-.0385.29466.2785.76671.93292.57293.79424 1.0187 1.6081.99517 1.791-.0933.72514-.59023.13316-1.2952-1.5099-.3356-.78215-.5079-1.1755-.46671-1.2141z"/><path d="m84.766 234.97c-.97737-.19176-4.8117 3.5627-3.9572 3.8741.34057.12413.92789.37302 1.2897.5594.3618.18643 1.1193.48468 1.6733.67664.89532.31025.88214.4145-.12761.99472-.88052.50589-.94884.72207-.22866.87413.56365.11897.23782.69337-.83212 1.4921-1.6699 1.2466-1.7031 1.3622-.51797 2.0224.68854.38357 2.3384.26275 3.6655-.26737 2.0203-.80694 2.411-1.3528 2.3116-3.2631-.13437-2.5826-2.089-6.73-3.2766-6.963z" fill="url(#radialGradient4748)"/><path d="m171.07 244.67c-.87061-.13802-1.6604-.0374-1.9824.442-.26022.38735.007 1.8744.61841 3.2948 1.407 3.2678 2.5613 3.5312 2.5045.58142-.0357-1.8598.1151-2.0587.78436-1.0772 1.0165 1.4908 1.6966.95247 1.371-1.0819-.16438-1.0277-1.8449-1.9291-3.2959-2.1591z" fill="#f9f3d4"/><path d="m145.52 242.83c-.4019-.0889-2.224.85107-4.0417 2.1065-1.8177 1.2555-3.7523 2.5329-4.303 2.8102-.55075.27728-1.3734 1.7261-1.8312 3.2212-.74941 2.4479-.62766 2.8789 1.168 4.5721 1.322 1.2466 2.7772 1.844 4.3408 1.7752 3.4979-.15405 3.5546-1.1414.0988-1.9192-1.6688-.37563-3.3473-1.2645-3.7203-1.9726-.53473-1.0151-.4639-1.1466.30109-.64429.53361.35036 1.5996.14382 2.3531-.46553 1.2337-.998 1.3395-.93164 1.1706.3814-.2085 1.6207 2.7805 2.6397 3.6991 1.2722.29489-.439.835-.72525 1.2352-.64678.49948.098.46321.45557-.1597 1.1595-.67543.76331-.69689 1.5154-.0752 2.9271.7857 1.7844.82519 1.7428.37703-.47006-.43888-2.1668-.43193-2.1591.31221-.47571.44418 1.0048.55864 2.345.26861 2.985-.66676 1.4716 2.34 2.1789 3.7236.88315 1.2667-1.1862 1.3357-1.9344.4341-6.2206-.51492-2.4478-1.1278-3.5755-1.9092-3.4911-.81435.0879-1.0853-.48216-.90004-1.9224.27029-2.1014-1.2431-5.5777-2.542-5.8652h-5e-5z" fill="url(#radialGradient4750)"/><path d="m122.34 241.48c-1.2328-.0939-1.9793.4494-2.9097 2.0654-1.7149 2.9805-1.7442 3.3101-.44112 3.5658.57654.11307 1.4005-.60735 1.838-1.6001.60341-1.3691.91351-1.4825 1.2264-.50783.51965 1.6188-2.6319 4.1234-3.955 3.1479-.63682-.46945-.99501-.0725-1.1638 1.2397-.1997 1.5524.0497 1.8436 1.29 1.5932 1.0299-.20793 1.3185-.0116.91902.58299-.78087 1.1624.77714 1.2899 3.0258.23577 1.1988-.56204 2.2715-.4987 3.2651.22858 1.1756.86048 1.7448.76039 2.7273-.54468 1.0936-1.4526 1.1402-1.9374.46208-3.8992-1.103-3.1911-3.3445-5.5639-5.7242-6.0307-.1985-.039-.38375-.0635-.55988-.0767z" fill="url(#radialGradient4752)"/><path d="m133.41 243.7c-.69229-.17166-1.0639.43639-1.2454 1.8473-.14819 1.1523-.92986 3.4196-1.7304 5.0739l-1.4716 3.0289 1.958-.0528c1.8446-.047 1.8719-.003.46083.9621-.82109.56184-1.1854 1.0472-.82931 1.1012.9631.14622 3.3554-1.6659 3.0101-2.2802-.16439-.29232.34355-2.0739 1.1404-3.9798 1.3372-3.1984 1.3601-3.5625.30954-4.583-.67365-.65451-1.1868-1.0145-1.6022-1.1175z" fill="url(#radialGradient4754)"/><path d="m178.47 249.75c-1.479-.29016-5.6808 1.6065-5.8116 2.6229-.0449.34964.9801.60454 2.2652.58855 4.6229-.0576 5.5097 7.0491 1.4446 11.581-1.1259 1.2552-2.1122 2.7174-2.1802 3.2466-.21396 1.6629 4.4853 4.8608 8.3926 5.7324 2.0626.46002 4.1833 1.2597 4.7331 1.7534.60106.53979 1.3382.48468 1.8535-.11795 2.2091-2.5837 2.7187-7.4345.81613-7.8078-1.8124-.35556-4.216-2.9231-3.7226-4.0123.61383-1.3547.27638-3.8812-.54965-4.0432-.33601-.0659-.69746.67144-.81751 1.6052-.12942 1.0058-1.1278 2.0662-2.4443 2.609-2.6717 1.1013-2.837-.07-.18069-1.2731 1.0241-.46378 1.893-1.1361 1.9408-1.5073.27863-2.1658-.84303-5.3889-2.0416-5.8776-.76739-.31282-1.2731-.80849-1.1269-1.076.52957-.96962-1.2534-3.7653-2.5707-4.0237z" fill="url(#radialGradient4756)"/><path d="m149.74 247.95c-.24536.0217-.0719.28012.42635.81949.5926.64145 1.0103 1.6219.9474 2.2059-.0628.58406.19263 1.7184.55748 2.5352.57397 1.2847 1.0258 1.1808 3.3782-.87918 1.4955-1.3096 2.6166-2.5441 2.4764-2.7738-.44612-.73052-3.5254.41171-3.6472 1.3587-.0643.50015-.41084.86676-.74532.80116-.33445-.0656-.47088-.75005-.31614-1.5363.19177-.97464-.36081-1.6695-1.732-2.1626-.41339-.1486-.7238-.24568-.95809-.30695-.17567-.046-.30525-.0688-.38704-.0616v-.00011z" fill="url(#radialGradient4758)"/><path d="m142.37 247.61c.1167.0203.25192.0486.40692.0913.41335.11396.96988.31525 1.6569.59137 1.9186.7712 2.0654 1.0011.87363 1.3054-.79698.20362-1.9727-.13125-2.6038-.72975-1.0412-.98733-1.1506-1.3981-.33363-1.2584z"/><path d="m87.703 245.62c-.66164-.10275-1.3033.17224-2.1546.76221-1.0193.70645-1.4638 1.9145-1.6237 4.4127-.21293 3.3239-.15025 3.4394 2.2028 3.6564 2.262.20857 2.3049.2667.94193 1.2556-1.3752.99769-1.3836 1.2304-.59058 3.5248.46362 1.3414 1.6048 3.144 2.5491 4.0218 2.9136 2.7087 4.2556 3.2038 5.3905 2.0063.59243-.625 2.0054-1.1955 3.1416-1.2629 1.5874-.0943 2.1482-.61765 2.3551-2.2256.14804-1.1509.59645-2.033 1.013-1.9513.41641.0817.51837.6524.24722 1.2509-.27118.59842-.0335 2.1619.51976 3.4818.9941 2.372 1.3683 2.0416 1.6599-1.5318.0644-.78482.18366-.87253.3181-.22373.20006.96552 2.1618.53946 5.3069-1.1581.52485-.28329-5.4196-10.333-6.2045-10.487-1.5666-.30729-4.4849 1.3055-5.0175 2.7759-.31061.8573-.8217 2.3244-1.1599 3.2517-.4426 1.2137-.28699 1.7554.55271 1.9201.78436.1539.20994.92487-1.7555 2.3616-3.2775 2.3959-4.0541 2.4385-5.6486.37393-1.2265-1.5879-1.0242-6.8196.27743-7.1842.50575-.1416.62011.94208.31357 2.961-.43015 2.8323-.29233 3.2844 1.2367 3.8237 2.2653.79889 3.3585-.51202 4.2604-5.2447.70864-3.7183.64554-3.9043-1.345-4.8669-1.1387-.55067-2.8937-2.0643-3.8957-3.329-1.0519-1.3275-1.8315-2.0479-2.5925-2.2934-.09512-.0307-.20438-.0673-.2989-.0819v-3e-5z" fill="url(#radialGradient4760)"/><path d="m100.35 247.98c.37627.0738.45329.49686.15841.93579-.29488.43897-.83727.72249-1.2136.64865-.37627-.0738-.43171-.49495-.13681-.93394.29488-.43895.81567-.72432 1.192-.6505z"/><path d="m81.405 247c-2.9729-.13619-4.1362 3.2622-1.4781 5.2077.96892.7092 2.2504 2.0593 2.8729 3.0163 1.1027 1.6953 1.1175 1.6803.29758-.58876-.53356-1.4765-.58814-3.2154-.13536-4.7615.62836-2.1456.52739-2.5049-.93234-2.7914-.21362-.0419-.42648-.0734-.62466-.0824v6e-5z" fill="url(#radialGradient4762)"/><path d="m174.06 255.26c.20875.007.43265.0404.66791.0858.94066.1846 1.6792.617 1.6324.98042-.0467.36343-.86023.50262-1.8009.31808-.94069-.1846-1.6576-.61511-1.6109-.97854.0351-.27259.48515-.42574 1.1115-.4061v3e-4z"/><path d="m106.45 249.43c-.60239-.0699-1.1838.36585-1.4498 1.2986-.25077.87942.24622 1.4276 1.6268 1.7622 1.789.43367 1.9555.26254 1.4318-1.356-.29268-.90434-.81888-1.4428-1.353-1.6266-.0858-.0296-.16964-.0682-.2557-.0781v-3e-5z" fill="url(#radialGradient4764)"/><path d="m88.141 248.67c.17024.0242.34897.0574.51494.10072 1.0326.26883 1.8986.92015 1.9706 1.8202.09789 1.2236.05319 1.208-.45009-.0951-.50333-1.3031-.63432-1.3445-1.3936-.28904-.75923 1.0555-.92602 1.0328-1.3737-.25937-.43118-1.2446-.54278-1.2414-.72152.0768-.11456.84695-.53107 1.4786-.9349 1.3994-.40388-.0794-.54512-.82427-.30922-1.6475.2746-.95816 1.5057-1.2728 2.6974-1.1061z"/><path d="m170.51 256.02c.0915.0282.20883.2789.34345.75635.25077.88971.18614 2.1555-.11149 2.8121-.80827 1.784-.9416 1.4188-.63488-1.6479.13632-1.3634.25033-1.9677.40292-1.9206z"/><path d="m123.82 252.62c-1.3161-.21399-2.4349.95483-3.5241 3.5486-1.5995 3.8088-1.3916 5.4427.50995 3.9839.69936-.53647 1.1255-1.6523 1.0134-2.6498-.16684-1.4847.18953-1.6755 2.6379-1.1951l2.832.5541-2.7829 2.4677-2.7596 2.4418 2.7191 1.6618c1.4986.90836 3.0897 1.9382 3.5266 2.291.91908.74213 1.1639-.27039.52838-2.1892-.24249-.73245-.78819-1.1402-1.2022-.91498-.41402.22522-.82065-.36953-.89173-1.3629-.11227-1.5685.0466-1.6661 1.1452-.59872.96336.93597 1.4255.96533 1.989.14535 1.3095-1.9061 1.0976-3.2844-.71266-4.5603-.97269-.68559-2.3722-1.7988-3.1022-2.4775-.70176-.65251-1.3279-1.0484-1.9262-1.1457z" fill="url(#radialGradient4766)"/><path d="m116.45 252.62c-.84957-.22342-1.3421.54201-2.0322 2.6169-.64037 1.9254-.50172 2.1721 1.4682 2.5586 3.045.59744 4.4035-2.2849 2.0055-4.2676-.59233-.48973-1.0554-.80633-1.4416-.90788z" fill="url(#radialGradient4768)"/><path d="m175.08 258.43c.0342.0146.0825.0258.10449.065.1763.31357-.14726 1.1083-.71823 1.7535-1.4754 1.6673-1.7866 1.3684-.61307-.61218.48123-.81226.98748-1.3074 1.2268-1.2063z"/><path d="m106.25 253.21c-.20446-.009-.33981.0955-.36653.30336-.15131 1.1761 2.8362 4.3159 3.3616 3.5339.25819-.3844.12411-1.1732-.28237-1.7289-.86542-1.1832-2.0994-2.081-2.7127-2.1083z" fill="#f9f3d4"/><path d="m72.08 250.57c-.67612-.14598-1.3202.39867-1.5624 1.7079-.72069 3.8961-1.3008 5.3428-2.6775 6.6678-.77051.74167-1.5434 2.3285-1.6992 3.54-.15585 1.2114.03978 2.2531.4185 2.3274.37878.0744 1.483-.71866 2.4567-1.7696.97376-1.051 2.3092-1.7989 2.9717-1.6689.66248.12994 1.4108-.0927 1.6818-.49609.28201-.4198 1.2521-.0439 2.2478.86642 1.7489 1.5988 4.8265 1.8588 5.013.40881.05496-.4281-.21587-.87185-.59217-.94564-.37626-.0738-.62839-.56546-.56184-1.0827.07038-.54685.66599-.56318 1.4378-.0703 1.3968.89188 3.5025-.16436 3.7235-1.8828.08815-.68512-1.6306-1.363-5.3024-2.0266-5.0447-.91168-5.4563-1.1075-5.884-3.1389-.30034-1.4264-.99524-2.2907-1.6714-2.4367v-6e-5z" fill="url(#radialGradient4770)"/><path d="m133.64 255.96c-.89281-.0724-1.4595.3549-1.5794 1.2873-.0769.59726.17613 1.666.56799 2.3684.57097 1.0237.50011 1.1136-.33558.50162-.74375-.54471-1.2298-.16944-1.7341 1.3297-1.3601 4.0434.26055 6.7882 2.5135 4.2423.6871-.77643 2.2754-.92288 4.8692-.41394 3.1662.62109 4.1565 1.2184 5.4381 3.3236 1.7616 2.8938 2.2317 3.2289 2.44 1.6096.31738-2.4671-1.504-5.6405-3.1332-5.4418-1.9564.23864-2.631-.75278-1.4313-2.1084.69924-.79013.0912-1.6517-2.7669-4.0129-1.7972-1.485-3.3351-2.3797-4.4613-2.6239-.14077-.0305-.2595-.0515-.38707-.0616v-1e-4z" fill="url(#radialGradient4772)"/><path d="m160.81 259c-.55689-.0208-1.1193.19995-1.503.76306-.37338.54779-.93018 2.3447-1.2268 3.9723-.42293 2.3204-.14938 3.5959 1.2372 5.8913 2.0795 3.4424 2.1139 3.47 4.4791 1.6475l1.8275-1.4333-1.6617-1.2065c-.91538-.66998-1.6338-1.7468-1.61-2.3755.0238-.62863.0539-1.7664.0707-2.5084s.063-2.0366.11668-2.8956c.0563-.90368-.47595-1.517-1.1714-1.7505-.1739-.0583-.37251-.0977-.55813-.10446z" fill="url(#radialGradient4774)"/><g fill="#f9f3d4"><path d="m77.01 251.95c-.79514-.0904-1.8192.29192-1.9076.97937-.0456.35417 1.3705.91322 3.1556 1.2807 1.7852.36751 2.5002.35684 1.589-.0574-.91119-.41396-1.7978-1.1843-1.9578-1.6793-.07917-.24482-.28981-.37975-.55702-.46766-.1002-.0329-.20867-.0432-.32229-.0559v2e-4z"/><path d="m111.57 255.04c-.0812-.0207-.18059-.0253-.28429.0311-.41481.22564-.80272.81009-.86139 1.266-.0587.45602.2159.87185.59219.94568.37629.0738.7607-.45502.85788-1.2105.0729-.56661-.0609-.97019-.30439-1.0323v3e-5z"/><path d="m144.26 258.03c-.39114.0178-.94534.22201-1.4692.57046-1.3061.8685-1.3225 1.0834-.37267 1.7836.58063.42804.84462 1.0826.58063 1.4755-.5213.77607-.48953.79401.86646.38285.99452-.30155 1.5945-3.2294.84146-4.0617-.0321-.0355-.053-.0724-.10277-.0928-.0871-.0361-.21343-.064-.34386-.0578v-6e-5z"/><path d="m67.301 251.97c-.95404-.12935-2.8217 1.7812-3.0436 3.5066-.11505.89406.06419 1.6978.43181 1.7699 1.0278.20169 3.4696-3.6104 3.0825-4.8164-.08881-.27657-.25047-.43024-.47063-.4601z"/><path d="m152.81 259.95-2.2916 1.5605c-1.2718.85654-2.2045 1.9449-2.0614 2.3908.14313.44589.33198.81052.40472.81754.52079.0485 1.8201-1.3438 2.7893-2.9141l1.159-1.8548z"/><path d="m143.69 259.18c.39848.0782.67087.54629.60855 1.0309-.0623.48456-.23204.83609-.39796.8035-.16594-.0325-.46166-.4748-.63187-1.005-.17023-.53022.0228-.9076.42128-.82941z"/><path d="m69.191 253c-.17799-.10013-.493.2666-.77216.88266-.66229 1.4618-.30186 1.7966.55355.52322.31452-.46817.44942-1.0489.29977-1.315-.01874-.0333-.05566-.0766-.08115-.0909z"/></g><path d="m93.697 255.3c.08059-.004.1312.0109.19264.0447.2456.1356.36209.58809.4942 1.468.16247 1.0819.07842 2.2673-.18911 2.6657-.72121 1.0736-1.5221.72354-2.3436-1.0703-.62135-1.357-.51109-1.7511.74901-2.589.4972-.33063.85503-.50626 1.0968-.51914z"/><path d="m136.34 259.91c.0823.0121.16779.0405.25223.13379.33775.37329.57098 1.0694.51231 1.5254-.0587.45599-.40524.7601-.78151.68631-.37628-.0738-.61125-.74216-.51407-1.4976.0729-.56665.28394-.88199.53104-.84784z"/><path d="m115.28 258.5c-.37766-.0815-.75665-.0695-1.1302.0133-.87833.19369-2.2035.21966-2.9604.10522-1.5578-.23547-2.1828 1.983-.81137 2.8909.54502.36084.76376.17829.55156-.48282-.20791-.64761.13963-1.0138.83696-.87701 1.0821.21228 1.0618.35715-.14444 1.6079-1.2073 1.252-1.2306 1.4442-.18561 2.6102.89457.99826 1.6587 1.0205 3.6411.12167 1.3788-.62524 2.6981-1.7205 2.9125-2.4564.42484-1.4584-1.0737-3.1797-2.7102-3.533v1e-4z" fill="url(#radialGradient4776)"/><path d="m171.51 263.73c.16592.0325.43832.5007.60855 1.0309.17021.53021-.001.90948-.3997.83133-.3985-.0783-.69248-.54825-.63013-1.0328.0623-.48459.25536-.86194.42128-.82941z"/><path d="m63.26 257.88c-1.3596-.18115-1.4771.3573-1.9448 3.9936-.38803 3.0166-.23597 4.7644.51564 5.9681 1.3923 2.2302 3.9156 2.671 4.7043.82895.34343-.80203.82678-1.8356 1.0988-2.2791.27193-.44348-.38594-.25046-1.502.39999-2.6112 1.5218-3.2783 1.3346-3.4393-.9143-.08523-1.1909.21538-1.7538.84085-1.6311.52919.10391 1.0213-.22995 1.0909-.77109.07078-.55005-.49745-.91886-1.2956-.81134-.96609.13012-1.3699-.23487-1.253-1.1429.11488-.89331.58813-1.1273 1.4313-.6576.75506.42063 1.4835.21491 1.8131-.51257.84059-1.8552.80784-1.9246-1.394-2.3566-.24974-.049-.47188-.088-.66611-.11389v-3e-5z"/><path d="m156.96 267.52c-.084.002-.18407.0303-.2878.0867-.41476.22568-.76101.58374-.78849.79742-.0275.21372.24208.45505.61836.52884.37625.0738.74409-.28235.8101-.79553.0496-.38492-.1-.62244-.35217-.61746z" fill="#f9f3d4"/><path d="m84.495 261.76c-1.4954-.25897-2.823.59866-3.5658 2.4833-.31485.79883-.3642 2.1529-.12369 3.0067.38153 1.3535.79969 1.2726 3.2147-.69781 1.5234-1.2429 3.1995-2.224 3.7193-2.1625.51984.0618.01732-.62024-1.1188-1.5504-.72028-.58967-1.446-.96152-2.1258-1.0793h2.3e-5z" fill="url(#radialGradient4778)"/><path d="m72.96 262.16c-.32219-.0208-.64621-.0158-.95738.0285-1.6182.22971-2.0643.81577-2.3322 2.8981-.26311 2.0454-.06348 2.544.99299 2.5172.73286-.0186 1.5007.47342 1.692 1.0694.24398.75992.63609.7305 1.3514-.0779.86011-.97192.68042-1.3573-1.1494-2.447-2.0454-1.2181-2.0491-1.2978-.30438-1.0323 1.0182.15491 1.9883.71954 2.1585 1.2498.17024.53015 1.2146 1.1582 2.3244 1.3759 1.8405.36112 1.9665.21796 1.399-1.5265-.61706-1.8967-2.3494-3.3994-4.2298-3.8889-.31342-.0816-.62301-.14532-.94519-.16611v-.00015z" fill="url(#radialGradient4780)"/><g fill="#f9f3d4"><path d="m89.243 265.7c-.3763-.0738-.27906.33316.22494.91367.50399.58047 1.2189 1.1548 1.5952 1.2286.3763.0739.28254-.38874-.22145-.96921-.50399-.58048-1.2224-1.0992-1.5986-1.173z"/><path d="m68.604 268.57c-.3056-.0482-.42416.10757-.46519.49029-.06072.56601.51636 1.8456 1.2978 2.8512 1.3481 1.7348 1.4565 1.7813 1.9552.33798.37413-1.083-.01224-1.9016-1.3194-2.853-.68289-.49704-1.1628-.7782-1.4684-.82642z"/></g></g><path d="m126.69 482.86s166.26 20.234 181.23 18.199c12.055-1.6393 108.63-33.181 108.63-33.181l-263.05-2.4939-26.811 17.476z" fill="url(#linearGradient4728)" stroke-width="2.0601"/><g transform="matrix(2.1485 0 0 2.0126 30.479 -376.02)"><path d="m174.3 399.34-1.1062.8452s-1.7972 4.3618-2.2857 6.6954c-.32106 1.5338-.48967 3.1372-.40535 4.713.0941 1.7595.70369 4.4953 1.1267 6.2288l.6857 2.3524 3.836.0247c5.8964.0413 11.725-.97141 12.537-2.1582.44994-.65744.31294-1.0229-.50768-1.2718-.98309-.29813-.89119-.72891.58814-2.5461 2.0284-2.4915 2.4804-7.7729.92914-10.794-1.6239-3.1628-7.6797-4.366-10.496-2.1036-1.3184 1.0591-4.8556.21011-4.9914-1.1992-.003-.029.0761-.63019.0893-.78626z"/><path d="m182.6 401.77c.5041.0103 1.0261.16959 1.5718.47864 1.123.63598 1.1146.56579-.92302 7.4841-.3909 1.3269-1.2929 2.2741-2.4291 2.5817-1.2501.3385-1.6438.84622-1.3044 1.6096.2704.60821.90266 1.0559 1.4109.98922 1.4294-.18737 4.4265-4.653 4.0356-6.0206-.45833-1.6036.7766-5.202 1.8419-5.3416 1.532-.20074 1.8529 2.7266.44472 4.028l-1.3352 1.2317 1.5929.4526c.87626.25266 1.6166.7768 1.6534 1.1581.10417 1.0808-3.2084 3.4344-4.8351 3.4446-.80445.005-1.0517.18769-.55434.37207.49727.18433.94092.63941.97849 1.0288.15423 1.6004-2.2245 2.5412-4.4859 1.7655-1.8453-.63302-2.258-1.1596-2.1245-2.709.16023-1.8616.14436-1.8552-.76333-.20214-.51373.93557-.90892 1.9961-.87451 2.3534.11594 1.2024-2.619 1.0057-3.3863-.24167-.78038-1.269-.20805-11.388.72721-12.859.26136-.4112 1.1956-.42948 2.0798-.0183 1.1353.52789 1.5549 1.2641 1.4038 2.4802-.17139 1.3796.13325 1.1612 1.5338-1.0866 1.1085-1.7794 2.1463-2.7349 3.2439-2.9372.16465-.0304.32928-.0451.49737-.0417v-6e-5z" fill="url(#radialGradient4782)"/><path d="m176.51 409.78c-.40122.0526-.51572.45587-.23892.86694.27673.41104.65184.72751.81892.70566.16702-.0219.26053-.39926.21788-.841-.0426-.44177-.39674-.78421-.79788-.7316z"/></g><path d="m274.33 157.15c-11.801.70713-20.645 8.9443-21.526 19.139-3.5285-9.9332-15.871-16.886-29.707-16.057-10.614.63599-19.338 5.6756-23.382 12.607-4.9562-6.7144-13.959-11.014-23.684-10.432-10.6.63516-18.993 6.8662-21.751 15.085-4.3428-8.0994-14.033-13.509-24.581-12.877-9.6849.58026-17.373 6.0805-20.477 13.561-4.624-7.7521-14.426-12.829-25.087-12.19-10.293.61678-18.514 6.3956-21.587 14.164l-1.5364-.0653c-.37343 1.3668-.35284 3.6012.23421 7.6768.0184.4327.068.86448.11763 1.3019.12685 1.1095.34954 2.1697.65978 3.2233 2.4425 13.481 8.988 41.416 23.615 104.01 12.582 59.958 29.356 127.82 43.295 182.45-2.8203.21297 1.9146.67107 2.6443 1.105 1.3152.78231 11.634 2.5362 106.01 11.203 26.862 2.4666 52.366 4.9099 56.703 5.4531 3.8697.48481 6.966.76769 10.097.66216l-5.239-326.14c-4.0222-8.6592-13.992-14.535-24.82-13.887z" fill="url(#linearGradient4784)" stroke="#000" stroke-width="4.6167"/><path d="m316.72 159.47c-6.2238-.0184-11.999 4.0245-15.406 10.221l.001.0484 5.2082 327.06c5.8777-.50248 12.535-2.3345 25.231-6.2677 5.3352-1.6529 10.287-3.1205 13.978-4.1041.0828-.0215.11725-.0314.1979-.0524l9.8215-2.9556c.00011.00025.003.0484.003.0484l40.935-12.292 3.2277-1.0325 3.9568-1.1442.39457-1.844-1.6829-.40035 1.7346.0128c7.0401-31.888 12.388-65.32 18.58-94.349 23.019-107.12 34.536-163.57 36.702-179.94l-2.2696-.0502c-1.5383-8.1934-6.7585-14.491-13.537-15.278-6.5545-.76114-12.704 3.829-15.907 11.052-1.7513-7.9814-7.25-14.031-14.451-14.776-6.6481-.68795-12.984 3.3411-16.689 9.8121-1.535-8.3952-7.1661-14.871-14.618-15.642-7.5691-.7833-14.63 4.5952-17.977 12.689-1.1074-9.1049-7.0588-16.269-14.942-17.085-6.7542-.69904-13.199 3.4525-16.878 10.106-1.9843-7.4757-7.3186-13.053-14.211-13.767-.4835-.0502-.92446-.0662-1.4032-.0677v.00037z" fill="url(#linearGradient4786)" stroke="#000" stroke-linejoin="round" stroke-width="4.6167"/><path d="m78.703 168.91 8.4372-.83896 62.417 312.46-8.7771-1.0142-62.078-310.61" fill="#be0000"/><path d="m128.31 166.85 8.5525.39817 48.119 316.58-8.6379-.87314z" fill="#be0000"/><path d="m173.84 164.77 8.5412.11354 31.582 321.71-8.6362-.82561z" fill="#be0000"/><path d="m220.69 162.89 8.0834-.50648 19.674 327.26-8.6343-.77791z" fill="#be0000"/><path d="m315.12 161.93 5.3516.41592 2.0537 328.9-5.3448 1.443-1.596-330.81" fill="#be0000"/><path d="m346.54 165.51 5.2911.56037-5.7042 318.52-5.3427 1.4914z" fill="#be0000"/><path d="m380.13 169.86 5.2335.79997-17.675 307.54-5.4058 1.5882z" fill="#be0000"/><path d="m412.9 175.67 5.188 1.325-31.157 295.44-5.5354 1.6858z" fill="#be0000"/><path d="m444.85 179.65 4.5487 2.0517-48.69 287.94-4.35.43474z" fill="#be0000"/><path d="m270.23 159.82 8.5185-.45871 6.1152 333.48-8.5695-.82635z" fill="#be0000"/><g transform="matrix(2.1485 0 0 2.0126 24.323 -382.17)"><path d="m173.13 416.78c-.13985-.0564-.29213-.10001-.46198-.14865-.4532-.12805-1.0182-.21207-1.766-.34741-2.6911-.48676-3.3788-.36286-5.1064 1.1324-2.1352 1.848-2.6849 3.2394-1.9233 4.6917.6197 1.1818-.0398 6.1215-.8512 6.4318-1.331.509-1.5736 4.6544-.40437 6.705.62347 1.0935 1.7595 2.1752 2.5506 2.3936 1.6386.45233 6.331.21704 8.4087-.41385.76771-.2331 2.299-.31488 3.4139-.17292 2.6285.33466 3.1231-.0429 4.0415-3.1734.97798-3.334-.1933-7.4589-2.8358-9.9168-1.034-.9617-2.4078-2.9604-3.0377-4.4385-.72269-1.6956-1.0483-2.3503-2.0279-2.7431z"/><path d="m171.12 418.34c.33223.11758.61754.22348.87938.32419 1.833.70523 2.061 1.1291 2.4488 3.1802.59532 3.149.23279 5.2866-.94257 5.4654-.49733.0757-.97531.41821-1.0551.80407-.0798.38581.19822.62934.62386.512.42567-.11743.23799.0807-.39804.43881-1.5436.86941-1.6166 1.6182-.16962 1.5859.93309-.0208 1.1222.30304.86743 1.5345-.18513.89535-.59185 1.387-.97151 1.1818-.36104-.19513-.6839.0101-.7007.45743-.0171.45453-.94743.76269-2.1224.69247-1.6197-.0967-2.2112-.4237-2.5597-1.3992-.40625-1.137-.52929-1.1244-1.1466.24967-.37813.84167-1.0261 1.4493-1.4576 1.328-.99199-.27897-1.468-1.7504-.48558-1.5021.44818.11322.39574-.16483-.11641-.737-1.1286-1.261-.74403-2.5874.97043-3.373 1.1143-.5105 1.3222-.8772.92627-1.6324-.27844-.53107-.37219-1.6555-.20129-2.4818.17088-.8263.0843-2.2757-.20557-3.2209-.48886-1.5942-.40439-1.7876 1.216-3.0438 1.1538-.89454 1.7481-1.1404 3.0349-.83332.42893.10245.93726.2468 1.5657.46875v1e-4z" fill="url(#radialGradient4788)"/><path d="m175.96 423.96c.0289.002.0649.0184.10147.0374.2187.11554.54788.44721 1.0448.9491 1.7044 1.7217 3.5768 6.4875 3.0545 7.8066-.21437.5415-1.0101 1.2742-1.7515 1.5884-1.1871.50314-1.4737.36475-2.4094-1.0617-1.2423-1.894-.43608-2.945.97603-1.267.5289.62857 1.1119 1.0437 1.2967.9119.55083-.39273-1.2533-4.8314-2.2558-5.5384-.56516-.39859-.80136-1.2749-.60196-2.2391.15817-.76496.24777-1.1471.46681-1.1727.0274-.003.0494-.017.0783-.0144z" fill="url(#radialGradient4790)"/></g><g transform="matrix(2.0472 0 0 1.9278 -30.725 -348.61)"><path d="m66.995 410.05c-.56623.11877-1.1129.28769-1.6533.4902-1.4042.52643-3.0092 1.8757-3.1835 3.5834-.22258 2.1808 3.0307 5.5608 3.0307 5.5608l-2.1417 12.187c.31755-.173.53997-.27301.58954-.23947.96125.64936-.34009 2.5158-2.1345 3.0729-1.8831.58472-1.8874.77964-.5905 4.6499 1.0685 3.1887 1.9781 4.3825 4.4724 5.8157 2.9252 1.6807 3.459 1.6746 7.2277-.0735 6.0661-2.8137 6.7781-2.9683 10.443-2.4662 3.9048.53485 7.2363-.98966 8.8421-4.0897.87002-1.6798.86184-2.3493-.05366-2.9679-1.8126-1.2246-2.0034-3.664-.37526-4.741 1.1778-.77906 1.2345-1.2583.33728-2.3775-.61659-.76929-1.1838-2.5044-1.2665-3.8544-.21736-3.5464-2.3344-5.713-6.4135-6.5506l-3.5666-.7179.684-.1132-.9796-2.3079c-.02516-.0508-.04841-.10822-.07455-.15967-.38359-.75409-.87793-1.5487-1.3688-1.9056-3.3718-2.4506-7.8616-3.6275-11.825-2.7954z"/><path d="m66.486 413.1c1.053-.27539 2.7092-.15198 4.9945.39136 2.778.66046 5.4762 1.6444 5.9689 2.1746 1.8659 2.0079 1.8078 5.2125-.11292 9.0776-1.077 2.1672-1.8802 4.282-1.786 4.6943.09438.41229-.43993 1.5938-1.1982 2.6444-1.653 2.2905-2.3343 2.5322-5.0534 1.8406-3.7417-.95178-4.5225-2.665-3.5725-7.4634.46909-2.3697.68362-4.9377.49864-5.7407-.41132-1.79.95358-3.0352 3.4713-3.176 1.8371-.10269 1.8386-.12827.09106-1.0412-.98988-.51697-2.1085-.88333-2.4725-.77033-.36385.11289-.52468-.25744-.3771-.8269.14758-.56949-.0608-.93503-.4742-.80667-.41334.12838-.76321.99524-.75949 1.9104.0054 1.4041-.06179 1.4302-.41528.23251-.52464-1.7784-.15653-2.7866 1.1973-3.1407z" fill="url(#radialGradient4792)"/><path d="m82.324 420.67c1.0286-.26752 2.1535-.15192 3.3889.37518 2.0998.89597 3.7446 5.2861 2.54 6.7729-.35043.43247-.73257.34552-.85741-.2012-.12461-.54675-.45395-.71799-.73343-.37299-.27959.34494-1.0958.37131-1.8197.0574-1.073-.46509-1.0562-.5636.12489-.49323.79668.0474 1.3673-.28601 1.2657-.73083-.40716-1.7828-1.9416-1.2403-4.2541 1.4989l-2.4362 2.9021 2.8254-.0333c1.5502-.0193 3.2663-.0236 3.831-.009 1.3106.0337 2.6038 5.5122 1.7181 7.2944-1.2883 2.5926-7.0237 3.1881-9.5945.97515-3.1955-2.7506-3.2302-6.707-.12363-13.73.99435-2.2481 2.2006-3.6269 3.6682-4.1808.14268-.0539.30996-.0861.45688-.12435v.00012z" fill="url(#radialGradient4794)"/><path d="m62.48 436.34c.23067-.003.55007.19208.91807.59744.51949.57221 1.6186.90015 2.4881.70865.86953-.19153 1.336-.63458 1.0282-.97342-.30749-.33883-1.116-.44998-1.7902-.24066-.67419.20932-1.0894.13407-.93023-.186.43093-.86731 8.592-1.049 8.7874-.19376.09246.40497-.18724.84094-.62684.97742-.43967.13653-2.0332 1.4993-3.5459 3.0163-2.8324 2.8406-4.2612 3.8612-2.7136 1.9085.69083-.87171.49352-1.1477-.86344-1.2221-.94642-.052-2.1244-.82654-2.6199-1.7328-.68623-1.2549-.73168-2.3233-.34584-2.5858.05792-.0394.13726-.0727.21412-.0738v7e-5z" fill="url(#radialGradient4796)"/></g></g></g></svg>
